# xmcd
#
# Track frame offsets:
#	150
#	11136
#	29636
#	43962
#	55706
#	69286
#	83274
#	98238
#	115416
#	127417
#	139412
#	152598
#	168070
#	176747
#	190297
#
# Disc length: 2677 seconds
#
# Revision: 0
# Processed by: cddbd v1.5.2PL0 Copyright (c) Steve Scherf et al.
# Submitted via: EasyCDDAExtractor 2010.4.0.0
#
DISCID=cf0a730f
DTITLE=Blanca Rosa Gil - Pasión Bolero
DYEAR=1900
DGENRE=
TTITLE0=Toda una vida
TTITLE1=Quiero verte una vez más
TTITLE2=La mentira
TTITLE3=La renuncia
TTITLE4=Ya no me recuerdo
TTITLE5=La loca
TTITLE6=Repeticion
TTITLE7=Agonía
TTITLE8=Te adoraré
TTITLE9=Hoy
TTITLE10=Remate
TTITLE11=Corazón de cristal
TTITLE12=Decídete
TTITLE13=Sombras
TTITLE14=Besos de fuego
EXTD=
EXTT0=
EXTT1=
EXTT2=
EXTT3=
EXTT4=
EXTT5=
EXTT6=
EXTT7=
EXTT8=
EXTT9=
EXTT10=
EXTT11=
EXTT12=
EXTT13=
EXTT14=
PLAYORDER=
